<?xml version="1.0" encoding="UTF-8"?>
<svg id="Layer_2" data-name="Layer 2" xmlns="http://www.w3.org/2000/svg" viewBox="0 0 230 204.11">
  <defs>
    <style>
      .cls-1 {
        fill: #d99357;
      }

      .cls-2 {
        fill: #966042;
      }

      .cls-3 {
        fill: #f0d6af;
      }

      .cls-4 {
        fill: #d2a77c;
      }

      .cls-5 {
        fill: #f5f3e4;
      }

      .cls-6 {
        fill: #b4693a;
      }

      .cls-7 {
        fill: #d6a781;
      }

      .cls-8 {
        fill: none;
      }

      .cls-9 {
        fill: #381d0f;
      }

      .cls-10 {
        fill: #f4f1e5;
      }

      .cls-11 {
        fill: #ebd7b2;
      }

      .cls-12 {
        fill: #d79356;
      }

      .cls-13 {
        fill: #ebd4ad;
      }

      .cls-14 {
        fill: #b36939;
      }

      .cls-15 {
        fill: #442412;
      }

      .cls-16 {
        fill: #9a6244;
      }

      .cls-17 {
        fill: #ead4a9;
      }

      .cls-18 {
        fill: #f7d7ac;
      }

      .cls-19 {
        fill: #442412;
      }

      .cls-20 {
        fill: #bb8757;
      }

      .cls-21 {
        fill: #cba47c;
      }

      .cls-22 {
        fill: #ac7549;
      }

      .cls-23 {
        fill: #f6f3e7;
      }

      .cls-24 {
        fill: #d79256;
      }

      .cls-25 {
        fill: #f5f3e6;
      }

      .cls-26 {
        fill: #b2693a;
      }
    </style>
  </defs>
  <g id="Layer_6" data-name="Layer 6">
    <g>
      <path class="cls-8" d="M208.73,122.92c0-3.55-.97-5.96-2.96-7.37-3.45-2.44-9.55-1.46-12.7-.58-1.66,11.24-4.22,21.5-7.68,30.71,7.49-2.39,23.34-9.05,23.34-22.76Z"/>
      <path class="cls-21" d="M194.7,152.37c-1.47-1.47,2.95-3.19,11.09-11.14,3.61-3.52,4.98-7.19,5.39-10.2-2.29,5.44-6.95,10.19-13.82,14-5.83,3.23-11.59,4.88-13.91,5.47-1.88,4.41-3.99,8.54-6.31,12.43,7.96-.46,26.98-2.78,38.71-14.28,6.41-6.29,9.78-14.51,10.02-24.45-7.39,23.11-29.84,29.5-31.18,28.16Z"/>
      <path class="cls-21" d="M200.89,109.95c-.03-2.9.11-5.92.32-8.76h0c0-.13.02-.29.04-.46.13-1.61.28-3.16.44-4.59-2.86-.14-5.27.04-6.75.21-.28,4.91-.72,9.66-1.29,14.26,1.92-.42,4.54-.81,7.24-.66Z"/>
      <path class="cls-13" d="M201.72,96.14s-.02,0-.03,0c-.16,1.43-.31,2.98-.44,4.59.09-1.1.29-2.92.47-4.59Z"/>
      <path class="cls-13" d="M201.22,101.19c-.22,2.84-.35,5.86-.32,8.76,2.52.14,5.1.74,7.23,2.25,3.12,2.2,4.7,5.81,4.7,10.72,0,2.84-.55,5.55-1.63,8.11-.41,3.01-1.79,6.68-5.39,10.2-8.15,7.95-12.57,9.66-11.09,11.14,1.34,1.34,23.79-5.05,31.18-28.16,0-.39.02-.77.02-1.17,0-1.09-.05-2.14-.12-3.17-6.46-17.41-24.57-18.67-24.58-18.67Z"/>
      <path class="cls-5" d="M201.22,101.19h0s18.11,1.27,24.58,18.67c-.55-8.12-3.26-14.26-8.1-18.25-4.84-3.99-11.04-5.22-15.97-5.47-.18,1.67-.38,3.49-.47,4.59-.01.17-.03.33-.04.46Z"/>
      <path class="cls-19" d="M220.27,98.44c-8.52-7.01-20.07-6.76-25.13-6.24-.06,1.39-.12,2.78-.2,4.15,1.47-.17,3.89-.35,6.75-.21.01,0,.02,0,.03,0,4.93.25,11.13,1.48,15.97,5.47,4.84,3.99,7.55,10.13,8.1,18.25.07,1.03.12,2.08.12,3.17,0,.39-.01.78-.02,1.17-.24,9.94-3.61,18.16-10.02,24.45-11.73,11.5-30.75,13.82-38.71,14.28-.86,1.44-1.74,2.84-2.66,4.2,5.51-.06,29.55-1.17,44.22-15.55,7.49-7.33,11.29-16.94,11.29-28.55s-3.27-19.29-9.73-24.6Z"/>
      <path class="cls-19" d="M211.19,131.03c1.08-2.56,1.63-5.27,1.63-8.11,0-4.91-1.58-8.52-4.7-10.72-2.13-1.51-4.71-2.11-7.23-2.25-2.7-.15-5.32.24-7.24.66-.18,1.47-.37,2.92-.59,4.35,3.16-.88,9.26-1.86,12.7.58,1.99,1.41,2.96,3.82,2.96,7.37,0,13.71-15.85,20.37-23.34,22.76-.62,1.64-1.26,3.25-1.93,4.82,2.32-.58,8.08-2.24,13.91-5.47,6.87-3.81,11.54-8.56,13.82-14Z"/>
      <path class="cls-21" d="M164.99,103.15c-.18.12-.38.22-.61.28-2.55.67-5.11,1.29-7.68,1.89-2.94.7-5.89,1.36-8.88,1.93-1.2.23-4.06.76-5.21.93-.09,0-.18.02-.26.03-.76.13-1.51.27-2.26.42-.13.04-.25.08-.37.12-.25.08-.5.18-.74.27-1.5.61-2.88,1.5-4.16,2.56-.07.06-.14.11-.21.17-.18.15-.35.31-.53.47-.99.91-1.93,1.89-2.82,2.89-1.05,1.83-4.57,7.42-8.45,7.42-.21,0-.43-.02-.64-.05-1.04-.17-1.83-.75-2.23-1.61-.57.22-1.23.39-1.9.39-.42,0-.84-.07-1.24-.23-1.08-.42-1.86-1.3-2.2-2.45-.07-.26-.11-.54-.15-.82-.04,0-.09,0-.13.01-.4.61-.73,1.18-.92,1.69-.96,4.79,4.42,2.54,4.42,2.54,0,0-.19,1.58,1.44,2.48,1.63.9,5.4-1,5.4-1,0,0-1.39,2.98,2.19,2.98s10.33-7.94,15-10.41c4.67-2.47,12.02-1.92,12.02-1.92,0,35.9-35.28,68.91-72.08,68.91-24.06,0-40.87-9.53-49.63-16.13,6.33,8.9,14.58,17.71,25.32,25.65,11.1,4.76,24.38,7.47,40.22,7.47,73.12,0,91.63-57.58,93.44-109.55-5.06,5.11-14.33,9.37-26.14,12.68Z"/>
      <path class="cls-11" d="M112.21,117.27c-.49-.32-1.03-.9-1.26-1.93-19.86,3.47-46.67,4.75-76.18-3.24-.19,2.91-.24,7.78.54,14.9,1.59,14.45,9.74,22.27,3.87,22.27s-10.82-7.58-14.38-20.41c-2.34-8.45-2.4-16.21-2.17-20.53-3.74-1.32-7.51-2.78-11.31-4.43,0,0-1.21,32.03,20.83,63.01,8.76,6.6,25.57,16.13,49.63,16.13,36.81,0,72.08-33.02,72.08-68.91,0,0-7.35-.55-12.02,1.92-4.67,2.47-11.42,10.41-15,10.41s-2.19-2.98-2.19-2.98c0,0-3.77,1.9-5.4,1-1.63-.9-1.44-2.48-1.44-2.48,0,0-5.39,2.25-4.42-2.54.19-.5.52-1.08.92-1.69-.09,0-.18.02-.28.02-.61,0-1.25-.13-1.82-.51ZM47.21,164.42c-4.95,0-10.82-9.9-2.94-10.05,3.56-.07,7.89,10.05,2.94,10.05Z"/>
      <path class="cls-25" d="M24.79,128.85c3.56,12.83,8.5,20.41,14.38,20.41s-2.28-7.81-3.87-22.27c-.78-7.11-.73-11.99-.54-14.9-4-1.08-8.05-2.34-12.14-3.78-.23,4.33-.17,12.08,2.17,20.53Z"/>
      <path class="cls-25" d="M44.28,154.37c-7.89.15-2.01,10.05,2.94,10.05s.62-10.12-2.94-10.05Z"/>
      <path class="cls-23" d="M32.14,166.89c-22.04-30.98-20.83-63.01-20.83-63.01,3.8,1.65,7.57,3.11,11.31,4.43,4.09,1.44,8.14,2.7,12.14,3.78,29.51,7.98,56.32,6.7,76.18,3.24-.09-.39-.14-.84-.12-1.37.04-.96.29-2.05.65-3.14-4.58.2-9.2.3-13.8.3-39.69,0-80.47-7.57-93.44-20.67,1.42,40.71,13.08,84.85,53.22,102.08-10.75-7.94-18.99-16.75-25.32-25.65Z"/>
      <path class="cls-21" d="M184.29,90.85c4.55-3.02,6.99-6.21,6.99-9.34,0-.33-.04-.66-.09-.98-.02-.13-.05-.26-.08-.39-.04-.17-.09-.34-.14-.51-.93-2.95-4.01-5.98-8.96-8.79.4,5.32.64,11.06.73,17.25.66.9,1.18,1.82,1.56,2.77Z"/>
      <path class="cls-21" d="M96.84,67.31c.38-.32.75-.61,1.08-.88-2.66-1.54-5.2-3.39-7.43-5.62C12.31,65.06,8.37,82.83,10.32,90.33c.04.03.08.06.12.09,6.54-14.5,47.01-23.04,86.39-23.1Z"/>
      <path class="cls-10" d="M90.49,60.81c-1.09-1.1-2.11-2.28-3.03-3.57-.25-.35-.48-.71-.71-1.07-22.78.75-43.79,3.85-59.25,8.75-12.08,3.83-19.98,8.54-22.53,13.29-.02.03-.03.06-.04.09-.17.33-.32.66-.44.99-.05.14-.08.28-.12.42-.07.23-.14.46-.18.68-.07.37-.11.75-.11,1.12,0,2.95,2.18,5.95,6.23,8.81-1.96-7.49,1.99-25.27,80.17-29.52Z"/>
      <path class="cls-9" d="M73.06,93.59c-.06-1.27.42-2.13,1.12-2.18.31-.03.55-.01.74.03l9.65-11.18s-.09.58-.09,1.52c2.77-4.35,5.53-7.74,7.99-10.33-20.89.34-40.35,2.88-55.23,7.26-13.06,3.84-21.47,8.91-23.27,13.88,11.51,6.32,32.48,11.61,59.82,13.61l-4.61-8.11,3.88-4.49ZM64.38,93.15c-6.37-5.23.15-9.48-.38-10.01-.53-.53-1.29-1.14-15.47,1.86-13.55,2.87-16.38,6.94-18.13,5.19-1.94-1.94,7.43-6.14,20.63-9.43,13.2-3.28,29.89-4.23,30.74-2.56s-1.84,1.21-11.25,5.39c-9.41,4.17.23,14.79-6.14,9.56Z"/>
      <path class="cls-19" d="M184.29,90.85c-.38-.95-.9-1.87-1.56-2.77.02,1.23.03,2.47.03,3.73.54-.32,1.04-.64,1.53-.97Z"/>
      <path class="cls-19" d="M37.24,78.7c14.87-4.37,34.33-6.92,55.23-7.26,1.63-1.72,3.12-3.08,4.37-4.13-39.38.06-79.85,8.61-86.39,23.1,1.05.73,2.23,1.46,3.52,2.17,1.8-4.97,10.2-10.04,23.27-13.88Z"/>
      <path class="cls-19" d="M.57,78.14s.02-.05.03-.07c0,.02-.02.05-.03.07Z"/>
      <path class="cls-19" d="M.14,79.82c.01-.08.04-.16.06-.23-.01.08-.04.16-.06.23Z"/>
      <path class="cls-19" d="M195.2,79.68c.02.09.03.18.04.27-.01-.09-.03-.18-.04-.27Z"/>
      <path class="cls-19" d="M190.97,79.63c.05.17.1.34.14.51-.04-.17-.09-.34-.14-.51Z"/>
      <path class="cls-19" d="M191.28,81.51c0-.33-.04-.65-.09-.98.05.33.09.66.09.98Z"/>
      <path class="cls-19" d="M4.2,80.4c-.07.37-.11.75-.11,1.12,0-.37.04-.74.11-1.12Z"/>
      <path class="cls-19" d="M4.38,79.71c.04-.14.07-.28.12-.42-.05.14-.08.28-.12.42Z"/>
      <path class="cls-19" d="M4.94,78.31s.03-.06.04-.09c-.02.03-.03.06-.04.09Z"/>
      <path class="cls-19" d="M177.15,162.93c2.32-3.89,4.43-8.03,6.31-12.43.67-1.57,1.31-3.18,1.93-4.82,3.46-9.22,6.01-19.47,7.68-30.71.21-1.43.4-2.89.59-4.35.57-4.6,1.01-9.35,1.29-14.26.08-1.37.14-2.76.2-4.15.14-3.49.23-7.04.23-10.69,0,3.22-1.53,6.21-4.25,8.95-1.81,51.96-20.31,109.55-93.44,109.55-15.84,0-29.12-2.71-40.22-7.47C17.33,175.32,5.66,131.17,4.25,90.47c-2.72-2.75-4.25-5.74-4.25-8.95,0,36.66,7.19,65.73,21.38,86.4,16.49,24.02,42.16,36.2,76.3,36.2s59.81-12.18,76.3-36.2c.17-.25.33-.52.5-.77.92-1.36,1.8-2.77,2.66-4.2Z"/>
      <path class="cls-22" d="M70.52,83.59c9.41-4.17,12.11-3.72,11.25-5.39s-17.55-.73-30.74,2.56c-13.2,3.28-22.57,7.49-20.63,9.43,1.74,1.74,4.58-2.32,18.13-5.19,14.18-3,14.94-2.39,15.47-1.86.53.53-5.99,4.78.38,10.01,6.37,5.23-3.26-5.39,6.14-9.56Z"/>
      <path class="cls-20" d="M146.8,5.67c-.69-.94-1.63-1.44-2.95-1.55-1.36-.13-2.51.23-3.51,1.09-1.32,1.13-2.25,2.99-2.87,4.85,3.6.4,7.19.98,10.69,1.74.03-2.2-.26-4.61-1.36-6.13Z"/>
      <path class="cls-19" d="M137.47,10.06c.63-1.87,1.55-3.73,2.87-4.85,1-.85,2.15-1.22,3.51-1.09,1.32.12,2.26.61,2.95,1.55,1.11,1.52,1.4,3.93,1.36,6.13.03,0,.07.01.1.02,1.36.29,2.68.66,3.96,1.09.17-2.98-.1-6.88-2.12-9.64-1.38-1.89-3.42-3-5.9-3.22-2.49-.22-4.68.47-6.54,2.06-2.27,1.94-3.6,4.94-4.37,7.58,1.39.1,2.78.23,4.16.38Z"/>
      <path class="cls-1" d="M163.65,22.21c.37.37.74.74,1.1,1.13,2.2-2.47,5.29-4.34,6.29-3.31,0,0,0,0,0,0,1.54-.39,2.95-.52,4.21-.47-.08-.14-.16-.29-.25-.43-.43-.68-.88-1.24-1.34-1.69-1.73-.24-5.24.13-10,4.77Z"/>
      <path class="cls-24" d="M162.93,29.59c-1.31-1.57-.07-4.13,1.82-6.25-.36-.39-.72-.77-1.1-1.13,0,0-.02.02-.03.03-.07.12-.17.21-.28.28-.16.16-.32.31-.48.48-1.43,1.5-2.56,1.96-3.37,2.02-.04.06-.09.13-.13.18-.62.94-1.89,1.2-2.83.58s-1.2-1.89-.58-2.83c.2-.3.81-1.21,1.74-2.37-9.43-3.77-18.47-4.56-31.76-4.56-8.71,0-17.92,3.35-24.15,6.19.87.2,1.78.45,2.74.8,7.97,2.84,10.05,22.98,4.39,30.25,1.9-1.06,3.48-2.78,4.7-5.19.34-.67,1.16-.94,1.83-.61.67.34.95,1.16.61,1.83-2.2,4.39-5.54,7.01-9.71,7.72,2.61,2.18,6.57,4.61,12.6,6.86,16.35,6.1,20.87,3.24,21.4,4.82.53,1.58-6.63,9.87-27.13,9.87-4.48,0-7.96-1.62-10.67-4.15-2.76,2.56-9.37,9.25-11.79,16.51-.09.28-.19.53-.29.77,3.09,3.11,8.98,4.74,17.16,4.74,4.84,0,9.23-.01,13.18-.03,3.04-3.09,6.52-5.76,10.3-7.91.07-.04.14-.07.2-.11.6-.34,1.21-.66,1.83-.98,2.73-1.41,5.59-2.53,8.55-3.3.44-.12.87-.25,1.31-.35.06-.01.12-.02.17-.03.15-.03.31-.06.47-.09.94-.19,1.86-.35,2.78-.46.04,0,.09-.02.13-.02.01,0,.03,0,.04,0,.22-.03.44-.04.66-.06.95-.09,2.14-.23,3.14-.08.04,0,.09,0,.13,0,.49.03.93.23,1.26.54,0,0,0,0,.01,0,.07.06.13.13.19.2.05.06.1.12.14.19.03.04.05.09.08.13.03.06.06.12.09.19.11.27.17.57.16.88,0,0,0,0,0,0-.04.71-.44,1.31-1.01,1.64l5.17,8.29c.06-.02.11-.05.17-.07,11.32-4.68,12.52-11.22,12.4-23.32-.15-15.03-.15-19.7-2.19-28.9-.41-1.86-.97-3.68-1.53-5.45-.14.03-.27.06-.41.06-.88,0-1.7-.58-1.96-1.46-.3-1.01.22-2.06,1.17-2.46-.37-1.29-.68-2.53-.84-3.71-.19.03-.35-.02-.49-.18ZM143.59,27.01c5.71,1.52,7.99,7.27,5.41,8.34-2.58,1.07-2.03-2.63-6.51-4.2-4.48-1.56-6.22,3.44-8.19.63-1.51-2.16,3.58-6.3,9.29-4.78ZM146.38,19.87c3.8,1.14,6.55,5.58,5.11,6.47-1.44.89-3.04-2.45-5.79-3.93-2.75-1.48-6.26.89-7.06-.38-1.01-1.61,3.93-3.3,7.73-2.16ZM154.32,67.46c-1.95,2.6-4.6,4.56-6.37,3.19-1.77-1.37,2.02-2.57,3.45-5,1.43-2.43.53-5.84,3.19-5.93,2.24-.07,2.12,4.56-.27,7.75ZM165.03,58.65c-.93,4.07-3.01,9.03-5.53,7.48s1.99-3.19,2.35-8.14c.35-4.96-2.08-6.95.27-7.66,2.58-.78,3.85,4.25,2.92,8.32Z"/>
      <path class="cls-18" d="M163.62,22.24s.02-.02.03-.03c4.76-4.64,8.28-5.01,10-4.77-.91-.88-1.88-1.33-2.93-1.34h-.04c-2.3,0-4.85,1.84-7,3.94.19.96.22,1.75-.05,2.2Z"/>
      <path class="cls-18" d="M163.34,22.51c-.35.21-.91.17-1.76-.23-.89,1.05-1.61,2.01-2.09,2.73.81-.06,1.94-.52,3.37-2.02.17-.17.32-.32.48-.48Z"/>
      <path class="cls-3" d="M89.67,90.79c.23.31.5.6.78.88.1-.23.2-.48.29-.77,2.42-7.26,9.03-13.95,11.79-16.51-1.2-1.12-2.23-2.42-3.15-3.83-2.84,2.4-7.05,6.63-11.31,13.23-.19.97-.59,4.13,1.6,6.99Z"/>
      <path class="cls-14" d="M91.87,50.71s.02.07.04.1c.23-.28.46-.64.66-1.07-.4-.06-.79-.11-1.15-.14.15.37.28.74.46,1.11Z"/>
      <path class="cls-14" d="M99.38,70.56c.91,1.41,1.95,2.71,3.15,3.83,2.71,2.53,6.19,4.15,10.67,4.15,20.49,0,27.65-8.29,27.13-9.87-.53-1.58-5.05,1.28-21.4-4.82-6.02-2.25-9.99-4.68-12.6-6.86-.77.13-1.56.22-2.39.22-4.01,0-7.01-1.29-8.9-3.83-.28-.38-.53-.79-.75-1.2-.73,1.01-1.6,1.67-2.62,1.94-.34.09-.68.13-1.03.13-.07,0-.15-.01-.22-.02.14.21.25.43.39.63,9.14,12.93,31.2,14.76,31.42,14.78,1.13.09,1.97,1.07,1.88,2.2-.08,1.07-.98,1.89-2.04,1.89-.05,0-.1,0-.16,0-.63-.05-10.31-.85-19.91-5.2-.61.42-1.51,1.09-2.63,2.03Z"/>
      <path class="cls-18" d="M101.76,22.19c6.24-2.84,15.44-6.19,24.15-6.19,13.29,0,22.34.79,31.76,4.56.09-.11.19-.23.28-.35-3.11-2.07-6.65-3.55-10.57-4.4-19.03-4.11-40.57-3.24-52,6.16,1.74-.35,3.84-.36,6.36.21Z"/>
      <path class="cls-18" d="M163.34,22.51c.11-.07.21-.16.28-.28.27-.45.24-1.24.05-2.2-.37.36-.72.72-1.06,1.09,0,0,0,0,0,0-.02.03-.05.05-.08.08-.33.36-.65.72-.95,1.07.85.4,1.41.44,1.76.23Z"/>
      <path class="cls-16" d="M93.62,32.53c-.88.35-1.45-.08-1.97-.77-1.58,3.75-3.27,10.43-.23,17.85.37.03.75.08,1.15.14.18-.38.35-.82.5-1.31-.75-4.59.62-9.29.7-9.56.22-.72.98-1.13,1.7-.91.72.22,1.13.98.92,1.7-.02.08-2.31,7.88.84,12.11,1.35,1.81,3.6,2.73,6.71,2.73,1.86,0,3.51-.43,4.97-1.25,5.66-7.27,3.58-27.41-4.39-30.25-.97-.34-1.88-.6-2.74-.8-2.52-.57-4.62-.57-6.36-.21-1.23,1.01-2.35,2.12-3.33,3.34,2.18,2.04,3.92,6.27,1.55,7.22ZM105.02,29.35c3.52,0,4.86,4.09,1.42,4.09s-5.05,2.19-6.12.5c-1.11-1.76,1.19-4.59,4.71-4.59Z"/>
      <path class="cls-26" d="M169.07,24.27c-2.07,1.3-4.41,5.29-5.66,5.5.17,1.18.47,2.42.84,3.71.07-.03.13-.06.21-.09,2.65-.79,9.91-3.82,11.57-8.25.65-1.73.38-3.56-.78-5.58-1.26-.05-2.67.07-4.21.47,1.85,1.89.41,2.74-1.96,4.24Z"/>
      <path class="cls-26" d="M169.18,71.69c.12,12.1-1.08,18.63-12.4,23.32l3.37,5.22c1.24-.29,2.36-.56,3.25-.76.07-.02.14-.02.21-.03,5.89-1.64,10.96-3.48,15.08-5.44.07-27.14-2.63-45.85-8.45-58.51-2.44,1.18-4.41,1.78-4.6,1.84-.06.02-.11.01-.17.02.56,1.77,1.12,3.59,1.53,5.45,2.03,9.19,2.03,13.86,2.19,28.9Z"/>
      <path class="cls-7" d="M90.98,51.48c.32-.08.64-.31.93-.66-.01-.03-.02-.07-.04-.1-.18-.37-.3-.74-.46-1.11-3.04-7.42-1.34-14.09.23-17.85-.6-.79-1.14-1.91-2.05-2.58-.61,1.23-1.12,2.54-1.5,3.94-1.78,6.61-1.64,12.46.37,17.45,1,.75,1.87,1.08,2.5.92Z"/>
      <path class="cls-19" d="M91.66,54.12c1.01-.26,1.89-.93,2.62-1.94-.62-1.18-1-2.46-1.21-3.75-.15.49-.32.93-.5,1.31-.2.43-.42.79-.66,1.07-.3.35-.61.58-.93.66-.63.16-1.5-.16-2.5-.92.52,1.28,1.17,2.5,1.94,3.67.07,0,.15.02.22.02.35,0,.7-.04,1.03-.13Z"/>
      <path class="cls-19" d="M116.04,49.27c.34-.67.07-1.49-.61-1.83-.67-.34-1.49-.07-1.83.61-1.21,2.42-2.79,4.13-4.7,5.19-1.46.81-3.12,1.25-4.97,1.25-3.1,0-5.36-.92-6.71-2.73-3.14-4.22-.86-12.03-.84-12.11.22-.72-.19-1.48-.92-1.7-.72-.22-1.48.19-1.7.91-.08.27-1.45,4.97-.7,9.56.21,1.29.59,2.58,1.21,3.75.22.41.46.82.75,1.2,1.89,2.54,4.89,3.83,8.9,3.83.83,0,1.62-.09,2.39-.22,4.18-.72,7.51-3.34,9.71-7.72Z"/>
      <path class="cls-15" d="M100.31,33.94c1.07,1.69,2.68-.5,6.12-.5s2.1-4.09-1.42-4.09-5.81,2.83-4.71,4.59Z"/>
      <path class="cls-15" d="M91.65,31.76c.52.69,1.09,1.12,1.97.77,2.38-.94.63-5.18-1.55-7.22-.96,1.19-1.78,2.48-2.47,3.86.91.67,1.45,1.79,2.05,2.58Z"/>
      <path class="cls-15" d="M142.49,31.15c4.48,1.56,3.93,5.27,6.51,4.2,2.58-1.07.3-6.82-5.41-8.34-5.71-1.52-10.8,2.62-9.29,4.78,1.97,2.81,3.71-2.2,8.19-.63Z"/>
      <path class="cls-15" d="M145.7,22.41c2.75,1.48,4.35,4.82,5.79,3.93,1.44-.89-1.31-5.32-5.11-6.47-3.8-1.14-8.75.55-7.73,2.16.8,1.27,4.31-1.1,7.06.38Z"/>
      <path class="cls-15" d="M162.93,29.59c.13.16.3.21.49.18,1.25-.2,3.59-4.19,5.66-5.5,2.37-1.5,3.81-2.34,1.96-4.24,0,0,0,0,0,0-1-1.02-4.08.85-6.29,3.31-1.89,2.12-3.13,4.67-1.82,6.25Z"/>
      <path class="cls-6" d="M162.11,50.33c-2.35.71.09,2.7-.27,7.66-.35,4.96-4.87,6.6-2.35,8.14s4.6-3.41,5.53-7.48c.93-4.07-.34-9.1-2.92-8.32Z"/>
      <path class="cls-6" d="M154.59,59.71c-2.66.09-1.75,3.5-3.19,5.93-1.43,2.43-5.22,3.63-3.45,5,1.77,1.37,4.42-.58,6.37-3.19,2.39-3.19,2.51-7.82.27-7.75Z"/>
      <path class="cls-19" d="M162.6,21.12c.34-.37.7-.73,1.06-1.09,2.15-2.1,4.71-3.94,7-3.94h.04c1.06.01,2.03.46,2.93,1.34.46.45.91,1.01,1.34,1.69.09.15.17.29.25.43,1.17,2.02,1.43,3.85.78,5.58-1.66,4.43-8.91,7.46-11.57,8.25-.07.02-.14.06-.21.09-.95.4-1.47,1.45-1.17,2.46.26.89,1.08,1.46,1.96,1.46.14,0,.27-.03.41-.06.06-.01.11,0,.17-.02.19-.06,2.16-.66,4.6-1.84-.29-.63-.58-1.26-.89-1.87-.51-1.01-.11-2.24.9-2.75,1.01-.51,2.24-.11,2.75.9.28.55.54,1.12.81,1.7,2.55-1.69,4.98-3.96,6.07-6.86,1.16-3.09.69-6.34-1.41-9.65-2.56-4.04-5.6-4.91-7.7-4.93h-.07c-3.7,0-7.24,2.51-9.93,5.14.51.35,1.01.72,1.5,1.1.89.7,1.05,1.98.35,2.87Z"/>
      <path class="cls-19" d="M155.94,22.94c-.62.94-.36,2.21.58,2.83s2.21.36,2.83-.58c.04-.06.09-.12.13-.18.48-.71,1.21-1.68,2.09-2.73.3-.35.61-.71.95-1.07-.71.81-1.93.94-2.79.27-.57-.45-1.16-.86-1.76-1.26-.1.12-.19.24-.28.35-.93,1.17-1.54,2.08-1.74,2.37Z"/>
      <path class="cls-19" d="M87.85,52.04l.12,4.09c-.4.01-.8.03-1.21.04.23.36.46.72.71,1.07.91,1.29,1.93,2.48,3.03,3.57,2.22,2.24,4.77,4.09,7.43,5.62,1.69-1.32,2.78-1.95,2.93-2.03.99-.55,2.23-.2,2.79.78.55.98.21,2.23-.77,2.78-.02.01-.33.19-.86.56,9.59,4.35,19.28,5.15,19.91,5.2.05,0,.1,0,.16,0,1.06,0,1.96-.82,2.04-1.89.09-1.13-.76-2.11-1.88-2.2-.22-.02-22.28-1.85-31.42-14.78-.14-.2-.25-.42-.39-.63-.77-1.17-1.42-2.39-1.94-3.67-2.01-4.99-2.15-10.83-.37-17.45.38-1.4.89-2.7,1.5-3.94.69-1.39,1.51-2.68,2.47-3.86.98-1.22,2.1-2.32,3.33-3.34,11.43-9.39,32.96-10.27,52-6.16,3.91.85,7.45,2.33,10.57,4.4.6.4,1.2.82,1.76,1.26.86.67,2.08.54,2.79-.27.02-.03.05-.05.08-.08,0,0,0,0,0,0,.69-.89.54-2.17-.35-2.87-.49-.38-.99-.75-1.5-1.1-2.59-1.79-5.44-3.21-8.52-4.24-1.28-.43-2.6-.79-3.96-1.09-.03,0-.07-.01-.1-.02-3.51-.75-7.09-1.34-10.69-1.74-1.39-.15-2.78-.28-4.16-.38-22.4-1.59-44.28,4.3-49.15,22.37-2.03,7.55-1.85,14.28.53,20.1,1.06-.04,2.11-.08,3.17-.11Z"/>
      <path class="cls-19" d="M170.23,30.86c-1.01.51-1.41,1.74-.9,2.75.31.6.6,1.23.89,1.87,5.82,12.66,8.52,31.37,8.45,58.51,1.49-.71,2.85-1.43,4.09-2.17,0-1.26-.01-2.51-.03-3.73-.08-6.19-.32-11.94-.73-17.25-1-.57-2.07-1.14-3.23-1.69l1.77-3.69c.36.17.69.35,1.04.52-1.37-13.63-3.94-24.26-7.79-32.52-.27-.57-.53-1.15-.81-1.7-.51-1.01-1.75-1.41-2.75-.9Z"/>
      <path class="cls-19" d="M96.84,67.31c-1.26,1.05-2.74,2.41-4.37,4.13-2.45,2.59-5.22,5.98-7.99,10.33,0,0,0,.02,0,.03.48-.72,1.38-1.08,2.26-.83,1.08.31,1.71,1.44,1.4,2.52,0,.03-.03.13-.07.3,4.25-6.61,8.47-10.83,11.31-13.23,1.12-.95,2.02-1.61,2.63-2.03.53-.37.84-.55.86-.56.98-.56,1.33-1.8.77-2.78-.55-.98-1.8-1.33-2.79-.78-.15.09-1.24.72-2.93,2.03-.34.26-.7.56-1.08.88Z"/>
      <path class="cls-19" d="M4.25,90.47c12.97,13.09,53.75,20.67,93.44,20.67,4.6,0,9.21-.1,13.8-.3.32-.96.72-1.93,1.14-2.84l-10.25.81-27.38-.49-1.2-2.11c-27.34-1.99-48.31-7.29-59.82-13.61-1.3-.71-2.47-1.43-3.52-2.17-.04-.03-.08-.06-.12-.09-4.05-2.86-6.23-5.86-6.23-8.81,0-.37.04-.74.11-1.12.04-.23.12-.46.18-.68.04-.14.07-.28.12-.42.12-.33.27-.66.44-.99.02-.03.03-.06.04-.09,2.54-4.75,10.44-9.46,22.53-13.29,15.46-4.9,36.47-8,59.25-8.75.4-.01.8-.03,1.21-.04l-.12-4.09c-1.06.03-2.11.07-3.17.11C45.01,53.72,5.79,62.89.6,78.06c0,.02-.02.05-.03.07-.16.48-.28.96-.37,1.45-.01.08-.04.16-.06.23-.09.56-.14,1.12-.14,1.69,0,3.22,1.53,6.21,4.25,8.95Z"/>
      <path class="cls-19" d="M178.78,69.15c1.15.55,2.23,1.12,3.23,1.69,4.94,2.82,8.02,5.84,8.96,8.79.05.17.1.34.14.51.03.13.06.26.08.39.05.33.09.66.09.98,0,3.13-2.44,6.32-6.99,9.34-.49.32-.99.65-1.53.97-1.24.74-2.6,1.46-4.09,2.17-4.11,1.96-9.19,3.8-15.08,5.44,1.03-.13,2.01.52,2.25,1.55.2.86-.17,1.71-.86,2.17,11.81-3.3,21.08-7.57,26.14-12.68,2.72-2.75,4.25-5.74,4.25-8.95,0-.53-.05-1.05-.13-1.56-.01-.09-.03-.18-.04-.27-.89-5.01-5.46-9.61-13.61-13.7-.34-.17-.68-.35-1.04-.52l-1.77,3.69Z"/>
      <path class="cls-9" d="M114.29,104.8c.03-.06.05-.12.08-.18.04-.06.08-.12.12-.19.72-1.39,1.6-2.7,2.59-3.95-2.94,0-6.09.02-9.46.02-10.45,0-17.6-2.46-21.25-7.3-3.77-5.01-2.23-10.59-2.16-10.82.06-.21.16-.4.28-.57,0,0,0-.02,0-.03,0-.94.09-1.52.09-1.52l-9.65,11.18c1.84.43-1.29,4,6.62,7.02,8.72,3.34,22.91,4.25,22.98,6.07s-18.84,1.29-25.69-3.11c-4.21-2.7-5.68-5.8-5.77-7.83l-3.88,4.49,4.61,8.11,1.2,2.11,27.38.49,10.25-.81c.57-1.22,1.17-2.34,1.66-3.19Z"/>
      <path class="cls-19" d="M119.66,97.56c.37-.4.75-.79,1.13-1.18-3.95.02-8.34.03-13.18.03-8.19,0-14.07-1.64-17.16-4.74-.28-.28-.55-.57-.78-.88-2.19-2.86-1.79-6.02-1.6-6.99.03-.16.06-.27.07-.3.31-1.08-.32-2.21-1.4-2.52-.88-.25-1.77.11-2.26.83-.12.17-.22.36-.28.57-.07.23-1.61,5.81,2.16,10.82,3.65,4.85,10.8,7.3,21.25,7.3,3.37,0,6.52,0,9.46-.02.81-1.02,1.68-1.99,2.58-2.93Z"/>
      <path class="cls-12" d="M150.16,87.06c-1.33-.02-2.71.08-4.11.28-.03,0-.07.01-.1.02-.43.06-.86.13-1.29.21-.25.05-.5.1-.75.16-.22.05-.43.09-.65.14-.45.1-.91.22-1.36.34-.01,0-.03,0-.04,0-.59.16-1.19.34-1.79.54-3.61,1.69-7.74,4.1-11.45,7.43,1.86.52,3.79,1.5,5.5,3.26,1.8,1.86,3.08,3.98,3.99,5.99.31-.13.62-.26.93-.37-.85-2.72.79-5.3,7.6-6.93,3.97-.95,7.25-1.95,9.96-3.06l-5.17-8.29s-.03.03-.05.04c-.36.2-.78.29-1.22.24Z"/>
      <path class="cls-19" d="M139.71,108.74c.12-.04.25-.08.37-.12-.03,0-.07.01-.1.02-.09.03-.18.07-.27.1Z"/>
      <path class="cls-19" d="M142.34,108.2c.09,0,.17-.02.26-.03,1.16-.17,4.02-.7,5.21-.93,2.98-.57,5.93-1.23,8.88-1.93-2.1.49-4.21.96-6.33,1.39-2.62.59-5.35,1.03-8.03,1.5Z"/>
      <path class="cls-19" d="M134.07,112.21c.17-.16.35-.32.53-.47-.18.15-.35.31-.53.47Z"/>
      <path class="cls-19" d="M138.96,109.01c-1.51.59-2.88,1.49-4.16,2.56,1.28-1.06,2.65-1.95,4.16-2.56Z"/>
      <path class="cls-19" d="M150.51,82.98s-.09,0-.13,0c.54.08,1.03.24,1.39.54-.34-.31-.77-.51-1.26-.54Z"/>
      <path class="cls-19" d="M152.12,83.92s.05.09.08.13c-.02-.05-.05-.09-.08-.13Z"/>
      <path class="cls-19" d="M151.79,83.53c.07.06.13.13.19.2-.06-.07-.12-.14-.19-.2Z"/>
      <path class="cls-19" d="M152.29,84.25c.1.25.16.54.16.88.02-.31-.05-.61-.16-.88Z"/>
      <path class="cls-19" d="M142.99,83.73c-.44.11-.87.23-1.31.35.49-.13.98-.28,1.48-.38-.06.01-.12.02-.17.03Z"/>
      <path class="cls-19" d="M146.58,83.12c.2-.01.42-.03.66-.06-.22.02-.44.03-.66.06Z"/>
      <path class="cls-19" d="M143.63,83.61c.92-.19,1.85-.35,2.78-.46-.92.11-1.84.27-2.78.46Z"/>
      <path class="cls-19" d="M131.3,88.36c.6-.34,1.21-.66,1.83-.98-.62.31-1.23.64-1.83.98Z"/>
      <path class="cls-19" d="M114.37,104.62c-.03.06-.05.12-.08.18.04-.07.08-.14.12-.21.03-.05.05-.1.08-.15-.04.06-.08.12-.12.19Z"/>
      <path class="cls-19" d="M123.22,94.18c2.41-2.13,5.06-4.07,7.88-5.71-3.78,2.15-7.26,4.82-10.3,7.91-.38.39-.76.78-1.13,1.18,1.16-1.19,2.36-2.31,3.56-3.38Z"/>
      <path class="cls-19" d="M146.05,87.34c1.4-.2,2.78-.29,4.11-.28-1.33-.02-2.71.08-4.11.28Z"/>
      <path class="cls-19" d="M143.27,87.86c.22-.05.43-.09.65-.14-.22.05-.43.09-.65.14Z"/>
      <path class="cls-19" d="M141.87,88.21s.03,0,.04,0c-.01,0-.03,0-.04,0Z"/>
      <path class="cls-19" d="M151.38,86.82c-.36.2-.78.29-1.22.24.44.05.86-.05,1.22-.24Z"/>
      <path class="cls-19" d="M144.66,87.57c.43-.08.86-.15,1.29-.21-.43.06-.86.13-1.29.21Z"/>
      <path class="cls-17" d="M140.08,88.75c-4.66,1.51-9.35,3.95-13.48,7.03.66.08,1.34.2,2.03.4,3.71-3.32,7.85-5.73,11.45-7.43Z"/>
      <path class="cls-2" d="M134.12,99.44c-1.7-1.77-3.63-2.75-5.5-3.26-.63.57-1.25,1.16-1.86,1.78-2.98,3.06-5.47,6.39-7.5,9.51.31-.02.63.04.91.24.61.44.74,1.3.3,1.91-2.98,4.09-3.63,6.97-3.27,8.19.13.45.37.59.58.68.38.15,1.32-.18,2.04-.61.57-2.41,2.22-5.03,2.88-6.01.42-.63,1.27-.79,1.89-.37.62.42.79,1.27.37,1.89-1.9,2.82-2.96,5.77-2.57,6.34,0,0,.06.04.21.06,1.56.27,3.98-2.44,5.61-4.94.43-.88.91-1.75,1.57-2.53,2.12-2.8,4.96-5.48,8.33-6.87-.92-2.01-2.2-4.13-3.99-5.99Z"/>
      <path class="cls-4" d="M113.56,114.08c-.03.65.11.88.15.91.14.09.55.06.99-.05.52-2.03,1.72-4.39,3.58-6.94.24-.34.61-.51,1-.54,2.03-3.12,4.52-6.45,7.5-9.51.6-.62,1.22-1.21,1.86-1.78-.69-.19-1.37-.32-2.03-.4-4.43,3.3-8.21,7.32-10.64,11.67-1.13,2.14-2.32,4.84-2.4,6.63Z"/>
      <path class="cls-19" d="M110.83,113.97c-.02.53.03.98.12,1.37.23,1.02.77,1.61,1.26,1.93.57.38,1.21.51,1.82.51.1,0,.19-.02.28-.02.04,0,.09,0,.13-.01-.06-.51-.05-1.06.03-1.65-.46.07-.98.15-1.53-.02-1.13-.73-.64-2.11-.62-3.09l.23-1.8c.13-2.37.82-4.55,1.86-6.58-.04.07-.08.14-.12.21-.49.86-1.09,1.97-1.66,3.19-.42.91-.83,1.88-1.14,2.84-.36,1.1-.61,2.18-.65,3.14Z"/>
      <path class="cls-19" d="M113.71,114.99s-.18-.25-.15-.91c.07-1.8,1.27-4.49,2.4-6.63-1.05,1.88-1.86,3.82-2.34,5.79-.77,2.57-.12,1.99,1.01,1.96.02-.08.05-.18.08-.26-.43.11-.85.15-.99.05Z"/>
      <path class="cls-19" d="M119.84,120.63c-1.19.3-2.58.54-3.36-.38-.48-.84-.32-1.86-.42-2.74-.13-1.65-.74-1.55-1.59-1.42-.08.59-.09,1.14-.03,1.65.03.28.07.56.15.82.34,1.16,1.12,2.03,2.2,2.45.41.16.83.23,1.24.23.67,0,1.33-.17,1.9-.39-.01-.03-.03-.05-.04-.07-.02-.05-.03-.1-.05-.15Z"/>
      <path class="cls-19" d="M119.82,117.86c-.72.43-1.66.76-2.04.61-.21-.08-.45-.23-.58-.68-.36-1.22.29-4.09,3.27-8.19.44-.61.31-1.46-.3-1.91-.27-.2-.59-.26-.91-.24-.38.03-.75.2-1,.54-1.86,2.55-3.06,4.91-3.58,6.94-.02.09-.06.18-.08.26.41-.01.89.05,1.38.37,1.05,1.09.53,2.44.67,3.68-.03,1.52,1.71,1.36,3.07,1.05-.18-.73-.12-1.57.09-2.44Z"/>
      <path class="cls-19" d="M129.78,116.77c-1.69,2.35-4.28,3.66-6.8,4.88-.8.27-1.05-.83-1.39-1.26-.17-.19-.28-.17-.62-.05-.33.08-.72.19-1.13.29.02.05.03.1.05.15.01.03.03.05.04.07.41.87,1.19,1.44,2.23,1.61.22.04.43.05.64.05,3.88,0,7.4-5.58,8.45-7.42-.5.56-1,1.12-1.47,1.67Z"/>
      <path class="cls-19" d="M122.61,119.76c-.15-.02-.2-.06-.21-.06-.39-.56.67-3.51,2.57-6.34.42-.62.26-1.47-.37-1.89-.62-.42-1.47-.26-1.89.37-.66.98-2.32,3.6-2.88,6.01-.2.87-.26,1.71-.09,2.44.44-.1.84-.22,1.13-.3.8-.43,1.21.34,1.53.9.17.25.3.37.44.28,1.23-.71,2.42-1.71,3.36-2.76.88-1.1,1.42-2.37,2.03-3.6-1.63,2.49-4.06,5.21-5.61,4.94Z"/>
      <path class="cls-26" d="M146.65,98.13c-6.81,1.63-8.45,4.2-7.6,6.93.59-.19,1.19-.36,1.8-.46l1.72-.35c3.87-.77,12.05-2.72,17.57-4.03l-3.37-5.22c-.06.02-.11.05-.17.07-2.71,1.11-5.99,2.11-9.96,3.06Z"/>
      <path class="cls-19" d="M160.14,100.22c-5.52,1.31-13.69,3.26-17.57,4.03l-1.72.35c-.62.11-1.22.27-1.8.46-.32.1-.62.24-.93.37-3.37,1.4-6.2,4.07-8.33,6.87-.66.78-1.13,1.65-1.57,2.53-.61,1.23-1.14,2.5-2.03,3.6-.94,1.05-2.14,2.04-3.36,2.76-.14.09-.27-.03-.44-.28-.32-.56-.73-1.33-1.53-.9-.29.09-.69.2-1.13.3-1.36.32-3.09.47-3.07-1.05-.14-1.24.38-2.6-.67-3.68-.49-.32-.97-.39-1.38-.37-1.12.03-1.78.61-1.01-1.96.49-1.97,1.29-3.91,2.34-5.79,2.43-4.36,6.22-8.38,10.64-11.67,4.13-3.08,8.82-5.52,13.48-7.03.6-.19,1.19-.38,1.79-.54.01,0,.03,0,.04,0,.46-.12.91-.24,1.36-.34.22-.05.43-.09.65-.14.25-.05.5-.11.75-.16.43-.08.86-.15,1.29-.21.03,0,.07-.01.1-.02,1.4-.2,2.78-.29,4.11-.28.44.05.86-.05,1.22-.24.02-.01.04-.03.05-.04.57-.34.97-.93,1.01-1.64,0,0,0,0,0,0,0-.34-.06-.63-.16-.88-.03-.07-.06-.13-.09-.19-.02-.05-.05-.09-.08-.13-.04-.07-.09-.13-.14-.19-.06-.07-.12-.14-.19-.2,0,0,0,0-.01,0-.36-.3-.85-.46-1.39-.54-1.01-.15-2.2-.01-3.14.08-.24.02-.46.04-.66.06-.01,0-.03,0-.04,0-.04,0-.09.02-.13.02-.94.11-1.86.27-2.78.46-.16.03-.31.06-.47.09-.5.11-.99.26-1.48.38-2.96.77-5.83,1.89-8.55,3.3-.61.32-1.23.63-1.83.98-.07.04-.14.07-.2.11-2.82,1.64-5.46,3.58-7.88,5.71-1.19,1.06-2.4,2.19-3.56,3.38-.91.93-1.78,1.91-2.58,2.93-.99,1.25-1.87,2.56-2.59,3.95-.03.05-.05.1-.08.15-1.04,2.03-1.73,4.22-1.86,6.58l-.23,1.8c-.02.99-.52,2.37.62,3.09.55.17,1.07.09,1.53.02.85-.13,1.46-.23,1.59,1.42.1.88-.06,1.9.42,2.74.78.91,2.17.68,3.36.38.41-.1.8-.21,1.13-.29.34-.12.45-.15.62.05.34.43.6,1.53,1.39,1.26,2.52-1.21,5.11-2.53,6.8-4.88.48-.55.97-1.11,1.47-1.67.89-1,1.82-1.98,2.82-2.89.17-.16.35-.31.53-.47.07-.06.14-.11.21-.17,1.27-1.07,2.65-1.97,4.16-2.56.25-.1.49-.19.74-.27.09-.03.18-.07.27-.1.03,0,.07-.01.1-.02.75-.15,1.5-.28,2.26-.42,2.68-.47,5.41-.91,8.03-1.5,2.12-.43,4.23-.9,6.33-1.39,2.57-.59,5.12-1.22,7.68-1.89.22-.06.43-.16.61-.28.69-.46,1.07-1.31.86-2.17-.24-1.03-1.23-1.68-2.25-1.55-.07,0-.14.01-.21.03-.89.21-2,.47-3.25.76Z"/>
      <path class="cls-22" d="M74.19,91.41c-.7.06-1.18.91-1.12,2.18.09,2.03,1.57,5.13,5.77,7.83,6.85,4.4,25.77,4.93,25.69,3.11s-14.26-2.73-22.98-6.07c-7.91-3.03-4.79-6.6-6.62-7.02-.19-.04-.43-.06-.74-.03Z"/>
    </g>
  </g>
</svg>